Coordinates
version=1
nRows=13
nColumns=30
inDegrees=yes

Units are S.I. units (second, meters, Newtons, ...)
Angles are in degrees.

endheader
time	floatyaw	floatroll	floatpitch	floatx	floaty	floatz	pro_sup_l	deviation_l	flexion_l	cmc_flexion_l	cmc_abduction_l	mp_flexion_l	ip_flexion_l	2mcp_flexion_l	2mcp_abduction_l	2pm_flexion_l	2md_flexion_l	3mcp_flexion_l	3mcp_abduction_l	3pm_flexion_l	3md_flexion_l	4mcp_flexion_l	4mcp_abduction_l	4pm_flexion_l	4md_flexion_l	5mcp_flexion_l	5mcp_abduction_l	5pm_flexion_l	5md_flexion_l
-1.495000	3.286137	-2.351481	98.024303	-0.106337	-0.192963	-0.030336	88.401003	0.303234	-1.522579	20.047859	1.567043	-21.319851	-34.840462	35.279218	8.531215	44.971917	32.030151	22.392801	4.926793	43.926846	30.001397	13.318331	-4.504685	57.852308	39.996639	11.053658	-9.719257	56.452484	40.520842
-1.485000	3.286137	-2.351481	98.024303	-0.106330	-0.192957	-0.030327	88.411309	0.308037	-1.525397	20.027436	1.557053	-21.329553	-34.839859	35.292571	8.520490	44.987504	32.034948	22.398757	4.920478	43.943500	30.013068	13.319849	-4.503013	57.854906	40.002161	11.044401	-9.705452	56.459297	40.514830
-1.475000	3.286137	-2.351481	98.024303	-0.106322	-0.192956	-0.030317	88.419513	0.312321	-1.534062	20.007048	1.543948	-21.339019	-34.839721	35.305080	8.509430	45.000800	32.038461	22.411042	4.915414	43.954425	30.022169	13.327730	-4.500089	57.854402	40.006992	11.047007	-9.694671	56.463875	40.508618
-1.465000	3.286137	-2.351481	98.024303	-0.106315	-0.192962	-0.030310	88.424214	0.314882	-1.548216	19.987978	1.528519	-21.346924	-34.840729	35.317424	8.499396	45.009813	32.040823	22.429300	4.912552	43.959882	30.031246	13.343875	-4.496921	57.850764	40.011445	11.062684	-9.687877	56.467864	40.504218
-1.455000	3.286137	-2.351481	98.024303	-0.106307	-0.192974	-0.030307	88.424918	0.315088	-1.565891	19.970962	1.513391	-21.352388	-34.842932	35.331763	8.491549	45.015753	32.043121	22.451726	4.911874	43.963385	30.043594	13.368082	-4.494477	57.845804	40.016095	11.086259	-9.683998	56.475833	40.503892
-1.445000	3.286137	-2.351481	98.024303	-0.106300	-0.192990	-0.030307	88.421511	0.312724	-1.583935	19.955523	1.501750	-21.355725	-34.845838	35.350736	8.486266	45.022123	32.046685	22.475361	4.912521	43.969795	30.061286	13.397132	-4.493216	57.842649	40.021824	11.109547	-9.681083	56.492209	40.508750
-1.435000	3.286137	-2.351481	98.024303	-0.106293	-0.193007	-0.030311	88.414118	0.307887	-1.598992	19.940119	1.495712	-21.358555	-34.848894	35.376138	8.482806	45.032309	32.052075	22.497247	4.913144	43.982731	30.083650	13.425277	-4.492907	57.844396	40.029566	11.125909	-9.677440	56.517737	40.517775
-1.425000	3.286137	-2.351481	98.024303	-0.106287	-0.193022	-0.030316	88.403588	0.301093	-1.608771	19.923074	1.495256	-21.362995	-34.851919	35.407855	8.479542	45.047216	32.058472	22.515788	4.912423	44.002589	30.107112	13.446672	-4.492980	57.852466	40.039803	11.133711	-9.672074	56.547750	40.528021
-1.415000	3.286137	-2.351481	98.024303	-0.106281	-0.193033	-0.030320	88.391970	0.293385	-1.613073	19.903698	1.498268	-21.370349	-34.855160	35.443554	8.474797	45.064581	32.063977	22.531390	4.909704	44.026349	30.126644	13.458732	-4.493173	57.865524	40.052130	11.137244	-9.664609	56.573552	40.535903
-1.405000	3.286137	-2.351481	98.024303	-0.106274	-0.193040	-0.030320	88.382255	0.286155	-1.614017	19.882841	1.501583	-21.380181	-34.858941	35.479323	8.467892	45.080446	32.066696	22.545924	4.905399	44.049501	30.138198	13.464194	-4.493927	57.879741	40.065212	11.144789	-9.655150	56.586364	40.538800
-1.395000	3.286137	-2.351481	98.024303	-0.106267	-0.193043	-0.030315	88.377220	0.280598	-1.615134	19.862468	1.502299	-21.390523	-34.863263	35.511027	8.459819	45.091747	32.065902	22.561365	4.900837	44.068990	30.140865	13.470177	-4.496178	57.890480	40.077243	11.164609	-9.644266	56.581685	40.536018
-1.385000	3.286137	-2.351481	98.024303	-0.106258	-0.193045	-0.030306	88.378037	0.277080	-1.619624	19.844447	1.498703	-21.399101	-34.867682	35.535740	8.453012	45.098143	32.062526	22.578381	4.897600	44.085245	30.137488	13.484559	-4.500731	57.894522	40.086624	11.200664	-9.632930	56.561532	40.528645
-1.375000	3.286137	-2.351481	98.024303	-0.106247	-0.193045	-0.030295	88.383581	0.274890	-1.628674	19.829271	1.490493	-21.404682	-34.871472	35.552626	8.450226	45.101948	32.058685	22.595699	4.896762	44.101805	30.133259	13.511858	-4.507751	57.891599	40.092475	11.250262	-9.622156	56.533377	40.518616
